<?xml version="1.0" standalone="no"?>
<!DOCTYPE svg PUBLIC "-//W3C//DTD SVG 1.1//EN" "http://www.w3.org/Graphics/SVG/1.1/DTD/svg11.dtd" >
<svg xmlns="http://www.w3.org/2000/svg">
<metadata></metadata>
<defs>
<font id="futurateemedconregular" horiz-adv-x="1024" >
<font-face units-per-em="2048" ascent="1529" descent="-519" />
<missing-glyph horiz-adv-x="382" />
<glyph horiz-adv-x="2048" />
<glyph horiz-adv-x="2048" />
<glyph unicode="&#xd;" horiz-adv-x="2048" />
<glyph unicode=" "  horiz-adv-x="382" />
<glyph unicode="&#x09;" horiz-adv-x="382" />
<glyph unicode="&#xa0;" horiz-adv-x="382" />
<glyph unicode="!" horiz-adv-x="505" d="M143 97q0 45 32 76.5t79 31.5q44 0 75.5 -32t31.5 -77t-32 -77t-77 -32t-77 32t-32 78zM163 328v1037h179v-1037h-179z" />
<glyph unicode="&#x22;" horiz-adv-x="684" d="M82 1365h206l-38 -535h-130zM396 1365h206l-38 -535h-130z" />
<glyph unicode="#" horiz-adv-x="778" d="M18 437v152h149l25 214h-127v152h146l51 410h144l-51 -410h116l50 410h146l-50 -410h144v-152h-164l-25 -214h125v-152h-145l-53 -437h-146l54 437h-116l-53 -437h-144l54 437h-130zM311 589h116l25 214h-116z" />
<glyph unicode="$" horiz-adv-x="776" d="M71 1033q0 237 168 320q52 25 108 29v121h81v-121q211 -17 265 -205l-140 -68q-34 128 -158 128q-73 0 -113 -49.5t-40 -140.5q0 -89 38.5 -137.5t181.5 -141.5q155 -100 197 -170q49 -80 49 -220q0 -240 -119 -332q-50 -39 -161 -60v-121h-81v121q-112 13 -170 59.5 t-97 153.5l150 72q23 -68 57.5 -94.5t99.5 -26.5q146 0 146 204q0 104 -42 154q-27 33 -143 106q-140 90 -190 148q-87 102 -87 271z" />
<glyph unicode="%" horiz-adv-x="1050" d="M66 1046q0 167 46 244t146 79q102 0 150 -79t48 -247q0 -135 -34 -216q-20 -48 -63.5 -76t-99.5 -28q-100 0 -146.5 78t-46.5 245zM131 0l677 1365h112l-677 -1365h-112zM189 1045q0 -120 16 -168t57 -48q39 0 56.5 50.5t17.5 162.5q0 116 -17 166.5t-58 51.5 q-40 0 -56 -48t-16 -167zM598 302q0 169 48 246q45 73 144 75q103 0 152 -88q43 -78 43 -238q0 -317 -194 -317q-99 0 -146 78t-47 244zM721 300q0 -119 15.5 -166.5t55.5 -47.5q39 0 56.5 50t17.5 162q0 115 -17.5 165t-56.5 51q-40 0 -55.5 -47.5t-15.5 -166.5z" />
<glyph unicode="&#x26;" horiz-adv-x="929" d="M81 323q0 93 42.5 174.5t147.5 189.5q-109 173 -109 325q0 62 26.5 117t72.5 90q68 51 166 51q126 0 198 -80q59 -64 59 -164q0 -91 -43 -168.5t-161 -195.5l180 -296l112 158l116 -93l-145 -202l145 -229h-201l-65 106q-101 -114 -234 -114q-129 0 -221 103 q-86 97 -86 228zM254 334q0 -78 44.5 -133t109.5 -55q71 0 138 86l-190 314q-57 -62 -79.5 -108.5t-22.5 -103.5zM329 1013q0 -43 10 -72t66 -144q75 78 102 125t27 99q0 50 -26 80t-70 30q-41 0 -70 -28q-39 -37 -39 -90z" />
<glyph unicode="'" horiz-adv-x="370" d="M82 1365h206l-38 -535h-130z" />
<glyph unicode="(" horiz-adv-x="531" d="M101 568q0 145 20.5 325t51.5 317q32 135 96 314l180 -44q-158 -508 -158 -898q0 -443 158 -932l-180 -47q-168 486 -168 965z" />
<glyph unicode=")" horiz-adv-x="531" d="M82 -353q158 509 158 898q0 443 -158 932l179 47q169 -486 169 -965q0 -145 -20.5 -325t-51.5 -317q-32 -135 -97 -314z" />
<glyph unicode="*" horiz-adv-x="778" d="M99 1263l24 74l234 -82l-7 247h79l-6 -247l233 82l24 -74l-237 -71l151 -197l-64 -46l-140 204l-141 -204l-63 46l150 197z" />
<glyph unicode="+" horiz-adv-x="778" d="M70 622v151h243v240h154v-240h241v-151h-241v-241h-154v241h-243z" />
<glyph unicode="," horiz-adv-x="382" d="M27 -307l121 498l147 -44l-175 -480z" />
<glyph unicode="-" horiz-adv-x="322" d="M0 400v138h322v-138h-322z" />
<glyph unicode="." horiz-adv-x="382" d="M82 96q0 45 32 76.5t79 31.5q44 0 75.5 -32t31.5 -77t-32 -77t-77 -32t-77 32t-32 78z" />
<glyph unicode="/" horiz-adv-x="816" d="M-89 -375l816 1877h142l-813 -1877h-145z" />
<glyph unicode="0" horiz-adv-x="776" d="M80 683q0 200 15.5 323.5t50.5 207.5q69 163 242 167q119 0 195 -88q62 -73 88 -215t26 -406q0 -192 -15.5 -313t-50.5 -207q-31 -76 -94 -122q-62 -46 -148 -46q-119 0 -195 88q-61 72 -87.5 214t-26.5 397zM263 680q0 -302 27 -419t97 -117q69 0 96 116t27 412 q0 310 -26.5 426.5t-97.5 118.5q-69 0 -96 -117t-27 -420z" />
<glyph unicode="1" horiz-adv-x="778" d="M176 1208v157h311v-1365h-176v1208h-135z" />
<glyph unicode="2" horiz-adv-x="777" d="M82 0q27 59 193 403q139 289 187.5 422.5t48.5 229.5q0 80 -31 124.5t-88 44.5q-59 0 -86 -50.5t-27 -159.5q0 -50 2 -92h-181q-1 43 -1 54q0 225 73 321q63 85 223 85q175 0 244 -103q57 -86 57 -231q0 -103 -42 -234t-135 -322l-175 -335h338v-157h-600z" />
<glyph unicode="3" horiz-adv-x="776" d="M88 307q0 13 1 36h172q-2 -30 -2 -44q0 -70 31 -111.5t83 -41.5q71 0 100 59t29 202q0 121 -38.5 174.5t-124.5 53.5q-18 0 -48 -5v160q113 0 148 25q61 44 61 194q0 212 -107 212q-106 0 -106 -181q0 -12 1 -41h-175q0 219 58 293q70 89 213 89q150 0 219 -84.5 t69 -270.5q0 -151 -31.5 -218t-119.5 -104q91 -30 124 -89q44 -76 44 -230q0 -116 -21 -190t-67 -125q-80 -86 -232 -86q-153 0 -216 86q-65 89 -65 237z" />
<glyph unicode="4" horiz-adv-x="776" d="M66 374v156l374 835h171v-850h87v-141h-87v-374h-171v374h-374zM210 515h230v572z" />
<glyph unicode="5" horiz-adv-x="777" d="M91 41l46 163q94 -49 158 -49q96 0 146 83q51 86 51 218q0 263 -225 263q-51 0 -112 -17l78 663h435v-158h-294l-44 -343h21q117 0 197 -57q138 -96 138 -331q0 -251 -118 -384q-95 -108 -260 -108q-56 0 -100.5 11.5t-116.5 45.5z" />
<glyph unicode="6" horiz-adv-x="776" d="M95 449q0 163 28 295t97 294q68 158 151 327h196l-27 -56q-122 -250 -153.5 -320t-86.5 -210q45 34 76 47t72 13q80 0 140 -56q51 -47 72.5 -133.5t21.5 -241.5q0 -128 -16.5 -203.5t-55.5 -128.5q-69 -93 -218 -93q-157 0 -227 109.5t-70 356.5zM277 411 q0 -268 115 -268q114 0 114 266q0 129 -25 201q-21 60 -90 61q-68 0 -89 -61q-25 -74 -25 -199z" />
<glyph unicode="7" horiz-adv-x="776" d="M101 0l380 1209h-380v156h610l-414 -1365h-196z" />
<glyph unicode="8" horiz-adv-x="776" d="M93 396q0 164 34.5 237.5t126.5 106.5q-77 34 -107 89q-42 79 -42 217q0 175 67.5 255t215.5 80q142 0 205 -69q78 -85 78 -266q0 -132 -34 -201t-115 -105q73 -26 103 -69q32 -45 45 -107.5t13 -167.5q0 -209 -67 -305q-75 -107 -228 -107t-227 107q-68 96 -68 305z M275 384q0 -124 27 -181t86 -57q113 0 113 229q0 144 -26 205t-87 62q-60 0 -86.5 -61t-26.5 -197zM287 1032q0 -212 101 -212t101 210q0 191 -101 193q-101 0 -101 -191z" />
<glyph unicode="9" horiz-adv-x="776" d="M96 920q0 262 73 363q70 98 218 98q158 0 226 -107.5t68 -358.5q0 -213 -47 -368t-220 -514l-16 -33h-196l29 60q168 337 241 513q-68 -54 -140 -54q-56 0 -104 26.5t-76 72.5q-30 52 -43 121t-13 181zM271 948q0 -140 27 -202.5t89 -62.5q60 0 87.5 62t27.5 199 q0 139 -26 202q-27 66 -90 67q-60 0 -87.5 -63.5t-27.5 -201.5z" />
<glyph unicode=":" horiz-adv-x="382" d="M82 96q0 45 32 76.5t79 31.5q44 0 75.5 -32t31.5 -77t-32 -77t-77 -32t-77 32t-32 78zM82 820q0 45 32 76.5t79 31.5q44 0 75.5 -32t31.5 -77t-32 -77t-77 -32t-77 32t-32 78z" />
<glyph unicode=";" horiz-adv-x="383" d="M27 -307l121 498l147 -44l-175 -480zM85 820q0 46 32.5 77.5t78.5 31.5q44 0 76 -32.5t32 -77.5t-32 -77t-77 -32q-46 0 -78 32t-32 78z" />
<glyph unicode="&#x3c;" d="M68 615v153l887 424v-177l-698 -324l698 -325v-175z" />
<glyph unicode="=" horiz-adv-x="778" d="M70 516v151h638v-151h-638zM70 728v151h638v-151h-638z" />
<glyph unicode="&#x3e;" d="M69 190v177l698 324l-698 325v175l887 -424v-153z" />
<glyph unicode="?" horiz-adv-x="673" d="M82 1024q1 151 24 223q42 132 222 132q146 0 205 -90.5t59 -313.5q0 -204 -40.5 -282.5t-148.5 -85.5v-289h-160v411q21 -1 41 -1q82 0 110 46.5t28 182.5q0 131 -15 192q-19 80 -83 80q-59 0 -71 -64q-7 -37 -8 -141h-163zM213 96q0 45 32.5 76.5t78.5 31.5 q44 0 75.5 -32t31.5 -77t-32 -77t-77 -32t-77 32t-32 78z" />
<glyph unicode="@" horiz-adv-x="1342" d="M55 684q0 313 205 516q183 183 442 183q179 0 324 -96q120 -80 189 -209q72 -135 72 -296q0 -113 -36 -219t-99 -180q-37 -43 -89.5 -69t-103.5 -26q-101 0 -146 107q-74 -111 -176 -111q-114 0 -183 108q-70 110 -70 263q0 181 96 300q39 48 93.5 75.5t110.5 27.5 q46 0 79 -19t73 -70l12 72h145l-56 -464q-5 -46 -5 -90q0 -58 46 -58q23 0 43 15q48 35 76 96q49 106 49 228q0 265 -196 394q-111 73 -247 73q-204 0 -340 -160q-137 -159 -137 -391q0 -220 121 -375q139 -176 378 -176q174 0 331 89q12 7 43 25l64 -144q-125 -69 -219 -95 t-217 -26q-208 0 -360 96q-142 89 -223 243q-89 169 -89 363zM542 649q0 -97 29 -159t75 -62q63 0 112.5 85.5t49.5 196.5q0 90 -31.5 145.5t-82.5 57.5q-64 0 -108 -76t-44 -188z" />
<glyph unicode="A" horiz-adv-x="738" d="M3 0l297 1365h144l292 -1365h-182l-51 266h-271l-52 -266h-177zM258 408h218l-40 218q-48 262 -67 474q-25 -250 -78 -517z" />
<glyph unicode="B" horiz-adv-x="745" d="M105 0v1365h249q149 0 221 -89.5t72 -273.5q0 -138 -38 -206t-135 -102q89 -36 122 -72q71 -79 71 -247q0 -190 -79 -282.5t-243 -92.5h-240zM278 158q64 1 94 9t52 29q53 52 53 185q0 132 -44 184.5t-155 52.5v-460zM278 764h13q77 2 117 32q60 46 60 201 q0 220 -159 220q-13 0 -31 -1v-452z" />
<glyph unicode="C" horiz-adv-x="691" d="M77 660q0 341 82 510q104 213 328 213q78 0 153 -40v-165q-71 34 -118 34q-65 0 -117.5 -39t-80.5 -108q-52 -124 -52 -398q0 -506 259 -506q51 0 109 28v-169q-67 -38 -149 -38q-414 0 -414 678z" />
<glyph unicode="D" horiz-adv-x="842" d="M105 0v1365h226q118 0 187 -27.5t123 -96.5q67 -86 95 -218.5t28 -358.5q0 -216 -31.5 -347.5t-100.5 -207.5q-55 -59 -141 -84t-237 -25h-149zM289 160q101 0 155 33q71 41 99.5 145t28.5 319q0 317 -56 435t-205 118h-22v-1050z" />
<glyph unicode="E" horiz-adv-x="658" d="M105 0v1365h489v-156h-305v-432h271v-156h-271v-465h305v-156h-489z" />
<glyph unicode="F" horiz-adv-x="634" d="M105 0v1365h492v-156h-308v-431h277v-156h-277v-622h-184z" />
<glyph unicode="G" horiz-adv-x="845" d="M78 677q0 431 90 572q85 134 261 134q134 0 210 -64.5t118 -215.5l-172 -72q-17 83 -39 123q-36 67 -117 67q-96 0 -128 -114q-32 -115 -32 -425q0 -309 34 -419t131 -110q87 0 123 77.5t36 267.5q0 18 -1 64h-159v156h334q0 -317 -25 -451q-52 -285 -304 -285 q-194 0 -277 160t-83 535z" />
<glyph unicode="H" horiz-adv-x="848" d="M105 0v1365h184v-534h270v534h184v-1365h-184v675h-270v-675h-184z" />
<glyph unicode="I" horiz-adv-x="395" d="M105 0v1365h184v-1365h-184z" />
<glyph unicode="J" horiz-adv-x="530" d="M-4 19v183q79 -47 123 -47q83 0 110 73q12 33 12 153v984h184v-1048q0 -160 -47 -230q-68 -105 -224 -105q-91 0 -158 37z" />
<glyph unicode="K" horiz-adv-x="762" d="M105 0v1365h184v-661l256 661h185l-268 -661l290 -704h-207l-256 704v-704h-184z" />
<glyph unicode="L" horiz-adv-x="599" d="M105 0v1365h184v-1209h301v-156h-485z" />
<glyph unicode="M" horiz-adv-x="1033" d="M57 0l113 1365h156l121 -557q35 -155 73 -429q4 32 30 192l24 149l19 98l108 547h159l126 -1365h-177l-30 463q-2 33 -13 287q-4 168 -6 190q-19 -127 -51 -297l-8 -48l-115 -595h-124l-108 515q-38 171 -71 425l-53 -940h-173z" />
<glyph unicode="N" horiz-adv-x="847" d="M105 0v1365h172l183 -545q86 -256 140 -492q-38 262 -43 528v509h184v-1365h-172l-206 614q-14 42 -38.5 122.5t-31.5 109.5q-4 18 -29 134q-4 16 -16 70q7 -59 16 -206q12 -177 13 -249l9 -595h-181z" />
<glyph unicode="O" horiz-adv-x="866" d="M78 715q0 189 16.5 303.5t56.5 197.5q79 164 278 167q127 0 210 -70q81 -68 115 -220.5t34 -443.5q0 -182 -18 -301t-58 -203q-77 -163 -274 -163q-136 0 -221 81q-78 73 -109 235q-30 153 -30 417zM271 676q0 -299 30 -403q35 -122 133 -122q112 0 140 146 q22 118 22 332q0 355 -32 470t-130 117q-93 0 -130 -103q-33 -92 -33 -437z" />
<glyph unicode="P" horiz-adv-x="718" d="M105 0v1365h242q130 0 199 -43q135 -83 135 -329q0 -289 -183 -361q-68 -26 -209 -27v-605h-184zM289 763q72 0 102 11q99 36 99 201q0 121 -42.5 178t-133.5 57h-25v-447z" />
<glyph unicode="Q" horiz-adv-x="865" d="M77 731q0 186 16 294t57 195q78 163 276 163q193 0 271 -143q49 -91 70 -226t21 -363q0 -192 -18.5 -314t-58.5 -197l116 -161l-116 -83l-93 134q-84 -48 -178 -48q-135 0 -222 82q-77 74 -109 233q-32 158 -32 434zM270 724q0 -264 19 -394q27 -177 146 -177q37 0 74 25 l-117 167l109 88l77 -108q18 129 18 295q0 357 -33.5 476t-133.5 119q-89 0 -126 -101q-33 -87 -33 -390z" />
<glyph unicode="R" horiz-adv-x="763" d="M105 0v1365h242q133 0 200 -51q116 -89 116 -304q0 -177 -81 -281q-39 -49 -107 -65l251 -664h-187l-250 668v-668h-184zM289 760q95 1 133 32q62 52 62 185q0 117 -37 180q-32 57 -128 57h-30v-454z" />
<glyph unicode="S" horiz-adv-x="676" d="M63 1035q0 160 83.5 254t226.5 94q99 0 187 -46v-180q-84 61 -151 61q-69 0 -116 -47q-49 -50 -49 -135q0 -70 33 -122.5t155 -175.5q106 -107 139 -170q55 -104 55 -225q0 -159 -89 -260t-229 -101q-117 0 -202 65v182q99 -71 179 -71q74 0 117.5 50.5t43.5 135.5 q0 74 -32.5 133t-123.5 147q-90 88 -122 125t-57 83q-48 87 -48 203z" />
<glyph unicode="T" horiz-adv-x="591" d="M-4 1204v161h599v-161h-206v-1204h-180v1204h-213z" />
<glyph unicode="U" horiz-adv-x="838" d="M105 401v964h180v-964q0 -113 11 -159q20 -87 124 -87q109 0 126 94q7 38 7 125v991h180v-991q0 -125 -15 -191.5t-54 -110.5q-79 -90 -248 -90q-204 0 -274 141q-37 76 -37 278z" />
<glyph unicode="V" horiz-adv-x="670" d="M-4 1365h182l83 -504l13 -91q45 -304 62 -432q6 56 32 221q38 255 46 302l88 504h172l-268 -1365h-145z" />
<glyph unicode="W" horiz-adv-x="1073" d="M3 1365h178l93 -634q24 -155 31 -232q10 -124 14 -161q22 237 53 436l98 591h141l92 -574q43 -268 57 -444q19 235 57 484l78 534h176l-241 -1365h-144l-96 589q-38 266 -52 424q-5 -44 -6 -60q-11 -128 -45 -364l-100 -589h-148z" />
<glyph unicode="X" horiz-adv-x="680" d="M-4 0l259 693l-242 672h178l95 -265q63 -181 67 -229q21 97 59 213l87 281h185l-252 -672l252 -693h-185l-90 260q-56 159 -68 250q-6 -48 -12 -71.5t-43 -140.5l-16 -50l-79 -248h-195z" />
<glyph unicode="Y" horiz-adv-x="699" d="M-4 1365h195l90 -298q7 -24 19 -63q51 -161 70 -270q17 114 54 274l11 48l75 309h193l-238 -778v-587h-184v587z" />
<glyph unicode="Z" horiz-adv-x="683" d="M23 0l413 1209h-365v156h602l-411 -1204h388v-161h-627z" />
<glyph unicode="[" horiz-adv-x="639" d="M137 -375v1877h434v-157h-248v-1563h248v-157h-434z" />
<glyph unicode="\" horiz-adv-x="816" d="M-47 1502h142l816 -1877h-145z" />
<glyph unicode="]" horiz-adv-x="639" d="M68 -218h248v1563h-248v157h434v-1877h-434v157z" />
<glyph unicode="^" d="M41 733l354 637h233l354 -637h-190l-281 496l-280 -496h-190z" />
<glyph unicode="_" d="M0 -124h1024v-162h-1024v162z" />
<glyph unicode="`" d="M281 1295l122 78l149 -270l-91 -52z" />
<glyph unicode="a" horiz-adv-x="714" d="M61 468q0 231 50 343q24 56 69.5 87.5t100.5 31.5q57 0 95.5 -27.5t72.5 -90.5v103h169v-915h-169v118q-36 -76 -72 -104.5t-96 -28.5q-114 0 -167 116.5t-53 366.5zM236 462q0 -177 23 -251q23 -73 88 -73q57 0 82 74t25 246q0 171 -24.5 244t-82.5 75q-61 0 -86 -71 t-25 -244z" />
<glyph unicode="b" horiz-adv-x="714" d="M96 0v1502h169v-690q36 66 72 92t92 26q117 0 170.5 -111t53.5 -351q0 -259 -61 -383q-49 -100 -159 -100q-59 0 -95.5 28.5t-72.5 104.5v-118h-169zM261 458q0 -179 24 -250q25 -70 82 -70q61 0 86 71t25 244q0 180 -23 250q-24 73 -88 74q-58 0 -82 -72t-24 -247z" />
<glyph unicode="c" horiz-adv-x="517" d="M61 449q0 277 88 396q63 85 187 85q66 0 133 -32v-173q-35 44 -84 44q-72 0 -106 -74t-34 -229q0 -321 138 -321q39 0 86 34v-157q-69 -37 -136 -37q-272 0 -272 464z" />
<glyph unicode="d" horiz-adv-x="714" d="M61 468q0 231 50 343q52 119 174 119q56 0 92 -26t72 -92v690h169v-1502h-169v118q-36 -76 -72.5 -104.5t-95.5 -28.5q-114 0 -167 116.5t-53 366.5zM236 462q0 -177 23 -251q23 -73 88 -73q57 0 82 74t25 246q0 171 -24.5 244t-82.5 75q-61 0 -86 -71t-25 -244z" />
<glyph unicode="e" horiz-adv-x="668" d="M61 455q0 240 65 357q30 54 87.5 86t124.5 32q199 0 255 -257q20 -90 20 -248h-386q2 -156 29.5 -225t86.5 -69q103 0 106 178h158q-7 -115 -37 -183q-29 -65 -90.5 -103t-138.5 -38q-117 0 -188 81q-92 104 -92 389zM227 547h213q-9 128 -26 174q-23 66 -80 66 q-52 0 -74.5 -50.5t-32.5 -189.5z" />
<glyph unicode="f" horiz-adv-x="444" d="M31 781v134h85v319q0 93 9 137t36 79q51 69 160 69q50 0 116 -24v-178q-42 22 -72 22q-61 0 -73 -50q-6 -24 -7 -131v-243h143v-134h-143v-781h-169v781h-85z" />
<glyph unicode="g" horiz-adv-x="715" d="M61 446q0 270 58 384q51 100 165 100q55 0 91.5 -27t74.5 -97v109h169v-945q0 -146 -22 -208q-25 -73 -91 -109q-73 -38 -168 -38q-138 0 -205 83q-59 73 -59 176q0 10 1 29h163q1 -146 109 -146q76 0 94 67q9 35 9 110v178q-26 -61 -55 -86q-48 -41 -110 -41 q-51 0 -95.5 27t-68.5 73q-60 111 -60 361zM236 467q0 -178 26 -253.5t89 -75.5q58 0 80 67.5t22 243.5q0 168 -27 247.5t-86 80.5q-54 0 -79 -73.5t-25 -236.5z" />
<glyph unicode="h" horiz-adv-x="733" d="M96 0v1502h169v-692q40 66 82.5 93t105.5 27q57 0 101 -27.5t64 -74.5q20 -48 20 -177v-651h-169v612q0 79 -12 110q-25 61 -87 61q-58 0 -81.5 -43t-23.5 -148v-592h-169z" />
<glyph unicode="i" horiz-adv-x="360" d="M59 1191q0 48 34 81t82 33q46 0 79.5 -34t33.5 -80q0 -48 -33.5 -81.5t-80.5 -33.5q-48 0 -81.5 33.5t-33.5 81.5zM95 0v915h169v-915h-169z" />
<glyph unicode="j" horiz-adv-x="360" d="M59 1191q0 48 34 81t82 33q46 0 79.5 -34t33.5 -80q0 -48 -33.5 -81.5t-80.5 -33.5q-48 0 -81.5 33.5t-33.5 81.5zM95 -375v1290h169v-1290h-169z" />
<glyph unicode="k" horiz-adv-x="708" d="M96 0v1502h169v-994l215 407h190l-233 -407l265 -508h-199l-238 486v-486h-169z" />
<glyph unicode="l" horiz-adv-x="360" d="M96 0v1502h169v-1502h-169z" />
<glyph unicode="m" horiz-adv-x="1106" d="M96 0v915h169v-113q38 68 81 98t104 30q67 0 108 -30.5t64 -97.5q37 70 80.5 99t110.5 29q111 0 165 -72q33 -45 33 -128v-730h-169v603q0 103 -19 138.5t-73 35.5q-69 0 -92 -53q-13 -31 -13 -121v-603h-175v603q0 98 -21.5 136t-76.5 38q-61 0 -90 -49 q-17 -30 -17 -125v-603h-169z" />
<glyph unicode="n" horiz-adv-x="733" d="M96 0v915h169v-105q40 66 82.5 93t105.5 27q57 0 101 -27.5t64 -74.5q20 -48 20 -177v-651h-169v612q0 79 -12 110q-25 61 -87 61q-58 0 -81.5 -43t-23.5 -148v-592h-169z" />
<glyph unicode="o" horiz-adv-x="698" d="M61 458q0 238 68 352q69 117 219 120q149 0 218.5 -115.5t69.5 -364.5q0 -465 -287 -465q-148 0 -218 115t-70 358zM243 460q0 -176 24.5 -246.5t84.5 -70.5t84.5 70t24.5 242q0 180 -24 250.5t-85 71.5q-60 0 -84.5 -70.5t-24.5 -246.5z" />
<glyph unicode="p" horiz-adv-x="714" d="M96 -375v1290h169v-118q35 75 72 104t97 29q113 0 166 -117t53 -366q0 -231 -50 -343q-52 -119 -174 -119q-57 0 -93 26t-71 92v-478h-169zM260 457q0 -171 25 -245t82 -74q61 0 86 71t25 244q0 180 -23 250q-24 73 -88 74q-57 0 -82 -74t-25 -246z" />
<glyph unicode="q" horiz-adv-x="714" d="M61 447q0 259 61 383q49 100 158 100q60 0 97 -29t72 -104v118h169v-1290h-169v478q-35 -66 -71 -92t-93 -26q-117 0 -170.5 110.5t-53.5 351.5zM236 462q0 -177 23 -251q23 -73 88 -73q57 0 82 74t25 245q0 172 -24.5 245t-82.5 75q-61 0 -86 -71t-25 -244z" />
<glyph unicode="r" horiz-adv-x="483" d="M96 0v915h169v-114q71 129 198 136v-177q-17 2 -30 2q-84 0 -126 -44q-25 -27 -33.5 -60.5t-8.5 -102.5v-555h-169z" />
<glyph unicode="s" horiz-adv-x="532" d="M51 686q0 112 68.5 181.5t178.5 69.5q80 0 152 -41v-157q-62 45 -130 45q-46 0 -77 -29.5t-31 -73.5q0 -36 26 -70t93 -85q95 -72 129 -128.5t34 -141.5q0 -110 -61 -185q-71 -86 -202 -86q-42 0 -72.5 9t-76.5 35v163q74 -54 140 -54q54 0 85 30.5t31 83.5 q0 44 -21 74.5t-83 78.5q-107 82 -145 140t-38 141z" />
<glyph unicode="t" horiz-adv-x="402" d="M23 784v131h93v256h169v-256h92v-131h-92v-784h-169v784h-93z" />
<glyph unicode="u" horiz-adv-x="736" d="M96 310v605h169v-547q2 -123 10 -155q16 -67 94 -67q87 0 99 80q4 28 4 142v547h169v-547q0 -122 -5.5 -170.5t-23.5 -85.5q-60 -127 -245 -127q-146 0 -208.5 75t-62.5 250z" />
<glyph unicode="v" horiz-adv-x="614" d="M7 915h181l67 -290q16 -70 33 -190.5t24 -211.5q5 28 26 168q5 48 44 234l62 290h164l-240 -915h-113z" />
<glyph unicode="w" horiz-adv-x="919" d="M14 915h179l51 -294q30 -171 49 -362q17 164 48 318l63 338h123l59 -338q29 -154 45 -318q17 172 45 318l63 338h167l-216 -915h-116l-70 349q-19 95 -23 126t-18 197q-7 -113 -39 -307l-70 -365h-117z" />
<glyph unicode="x" horiz-adv-x="680" d="M7 0l229 483l-229 432h200l80 -176q28 -58 48 -137q16 70 51 152l66 161h178l-206 -432l250 -483h-202l-81 175q-63 151 -70 196q-5 -65 -56 -180l-81 -191h-177z" />
<glyph unicode="y" horiz-adv-x="668" d="M7 915h191l135 -638l157 638h171l-374 -1290h-177l140 449z" />
<glyph unicode="z" horiz-adv-x="611" d="M27 0l317 766h-293v149h532l-306 -762h291v-153h-541z" />
<glyph unicode="{" horiz-adv-x="547" d="M67 482v170q9 10 26 13q47 9 67.5 42.5t20.5 100.5v390q0 307 264 307q39 0 52.5 -2t21.5 -8v-165h-14q-34 1 -38 1q-70 0 -88 -28.5t-18 -137.5v-372q0 -87 -20 -139t-70 -93q54 -54 72 -101t18 -133v-367q3 -122 18.5 -146.5t88.5 -24.5h37h14v-165q-46 -2 -65 -2 q-141 0 -207 80.5t-66 253.5v366q0 74 -19 107t-70 46q-9 2 -25 7z" />
<glyph unicode="|" d="M423 -341v1706h177v-1706h-177z" />
<glyph unicode="}" horiz-adv-x="547" d="M28 -204h35h17q70 0 88 28t18 137v372q0 87 20 139t70 93q-54 55 -72 101.5t-18 132.5v367q-3 122 -18.5 147t-88.5 25q-10 0 -37 -1h-14v166q11 0 33 1q19 1 32 1q141 0 207 -81t66 -254v-366q0 -74 19 -107t70 -46q7 -2 25 -6v-170q-9 -11 -25 -14q-48 -9 -68.5 -42.5 t-20.5 -100.5v-389q0 -307 -264 -307q-40 0 -52.5 1.5t-21.5 7.5v165z" />
<glyph unicode="~" horiz-adv-x="1365" d="M189 1247q45 95 75 136q83 115 214 115q75 0 225 -65q90 -39 123 -49.5t68 -10.5q56 0 93.5 27.5t81.5 101.5l108 -64q-61 -126 -124 -177q-81 -66 -182 -66q-40 0 -95 18t-194 77q-70 29 -118 29q-51 0 -90 -32t-79 -108z" />
<glyph horiz-adv-x="591" d="M-4 1204v161h599v-161h-206v-1204h-180v1204h-213zM70 1675l76 96l151 -127l152 127l73 -85l-225 -198z" />
<glyph horiz-adv-x="683" d="M23 0l413 1209h-365v156h602l-411 -1204h388v-161h-627zM144 1675l76 96l151 -127l152 127l73 -85l-225 -198z" />
<glyph horiz-adv-x="683" d="M23 0l413 1209h-365v156h602l-411 -1204h388v-161h-627zM288 1563l190 186l97 -106l-221 -155z" />
<glyph horiz-adv-x="589" d="M23 784v131h93v256h169v-256h92v-131h-92v-784h-169v784h-93zM374 1021l90 266l125 -48l-134 -252z" />
<glyph horiz-adv-x="611" d="M27 0l317 766h-293v149h532l-306 -762h291v-153h-541zM91 1304l95 70l131 -151l141 151l85 -70l-224 -253z" />
<glyph unicode="&#xa1;" d="M286 1304l95 70l131 -151l141 151l85 -70l-224 -253z" />
<glyph unicode="&#xa2;" d="M288 1292h113q6 -128 114 -128q52 0 77 29t32 99h113q-6 -123 -59 -179.5t-162 -56.5q-211 0 -228 236z" />
<glyph unicode="&#xa3;" horiz-adv-x="778" d="M54 65q10 57 38 92q54 69 131 69q8 0 26 -2q37 72 37 137q0 54 -27 131h-169v126h120q-7 18 -19 42q-53 115 -75.5 198.5t-22.5 164.5q0 173 98 274q85 86 241 86q126 0 199 -70.5t82 -200.5l-143 -67q0 63 -12 101q-29 88 -130 88q-76 0 -123 -50t-47 -129 q0 -117 76 -306q13 -33 41 -96q6 -13 15 -35h186v-126h-156q12 -52 12 -98q0 -111 -47 -208q96 -51 126 -51q43 0 65 62l148 -48q-62 -168 -190 -168q-78 0 -190 60q-53 28 -88 28q-45 0 -63 -59z" />
<glyph unicode="&#xa4;" horiz-adv-x="1365" d="M88 1235l103 102l200 -200q144 101 293 101q150 0 289 -99l199 197l102 -102l-198 -197q100 -145 100 -290t-98 -286l200 -200l-101 -102l-200 199q-137 -101 -292 -101q-145 0 -293 99l-199 -197l-101 102l198 198q-100 132 -100 290q0 147 99 286zM359 747 q0 -134 95 -230q95 -95 229 -95t230 96q94 94 94 229q0 137 -94 230t-226 96q-138 0 -234 -96q-94 -95 -94 -230z" />
<glyph unicode="&#xa5;" horiz-adv-x="738" d="M3 0l297 1365h144l292 -1365q-89 -81 -89 -149q0 -63 70 -63q44 0 87 17v-105q-49 -18 -97 -18q-58 0 -99 22q-70 38 -70 120q0 45 21.5 83.5t76.5 92.5h-82l-51 266h-271l-52 -266h-177zM258 408h218l-40 218q-48 262 -67 474q-25 -250 -78 -517z" />
<glyph unicode="&#xa6;" d="M423 314h177v-655h-177v655zM423 677v688h177v-688h-177z" />
<glyph unicode="&#xa7;" horiz-adv-x="778" d="M83 553q0 75 17 153t44 124q12 22 30 33q98 59 96 68l-2 7q-1 9 -68 64q-32 27 -55.5 94.5t-23.5 134.5q0 125 78 207q78 81 195 81q72 0 133.5 -34.5t97.5 -94.5q22 -37 30 -69t15 -107h-154q-11 92 -40 131.5t-85 39.5q-53 0 -87 -48t-34 -121q0 -70 35.5 -118.5 t129.5 -108.5q108 -70 141 -96.5t58 -63.5q62 -93 62 -270q0 -131 -44.5 -225.5t-121.5 -126.5l-10 -4l13 -9q129 -94 129 -273q0 -125 -68 -207q-77 -94 -203 -94q-81 0 -145 41.5t-98 115.5q-26 56 -36 169h153q5 -81 19 -118q29 -75 106 -75q55 0 89 47.5t34 125.5 t-39.5 130t-137.5 105q-78 41 -111 64.5t-57 54.5q-39 50 -62 124.5t-23 148.5zM233 567q0 -133 40.5 -203.5t115.5 -70.5q157 0 157 250q0 295 -158 297q-73 0 -114 -72.5t-41 -200.5z" />
<glyph unicode="&#xa8;" horiz-adv-x="1025" d="M255 1162q0 42 30.5 72t74.5 30q41 0 71 -30.5t30 -72.5q0 -43 -30 -73t-73 -30t-73 30t-30 74zM565 1162q0 42 30.5 72t74.5 30q41 0 71 -30.5t30 -72.5q0 -43 -30 -73t-73 -30t-73 30.5t-30 73.5z" />
<glyph unicode="&#xa9;" horiz-adv-x="1550" d="M68 681q0 202 104 373q103 168 284 261q150 76 329 76q191 0 360 -105q170 -105 260 -282q77 -151 77 -322q0 -199 -104 -369q-103 -170 -280 -261q-152 -78 -322 -78q-198 0 -368 104q-171 104 -262 282q-78 152 -78 321zM177 681q0 -251 177 -430q175 -177 421 -177 q247 0 422 178t175 430q0 172 -88 319q-86 143 -237 223q-119 62 -264 66q-253 0 -429 -177q-177 -177 -177 -432zM546 670q0 201 52 302q68 131 215 131q55 0 109 -29v-125q-60 28 -87 28q-73 0 -107 -72.5t-34 -226.5q0 -284 147 -284q27 0 81 24v-128l-7 -3 q-46 -24 -98 -24q-271 0 -271 407z" />
<glyph unicode="&#xaa;" horiz-adv-x="676" d="M63 1035q0 160 83.5 254t226.5 94q99 0 187 -46v-180q-84 61 -151 61q-69 0 -116 -47q-49 -50 -49 -135q0 -70 33 -122.5t155 -175.5q106 -107 139 -170q55 -104 55 -225q0 -159 -89 -260t-229 -101q-117 0 -202 65v182q99 -71 179 -71q74 0 117.5 50.5t43.5 135.5 q0 74 -32.5 133t-123.5 147q-90 88 -122 125t-57 83q-48 87 -48 203zM176 -342l110 257l127 -60l-149 -242z" />
<glyph unicode="&#xab;" horiz-adv-x="668" d="M68 479l229 401l81 -50l-208 -351l194 -362l-85 -44zM284 479l234 401l81 -50l-208 -351l189 -362l-79 -44z" />
<glyph unicode="&#xac;" d="M68 381v166h887v-547h-177v381h-710z" />
<glyph unicode="&#xad;" horiz-adv-x="322" d="M0 400v138h322v-138h-322z" />
<glyph unicode="&#xae;" horiz-adv-x="1550" d="M68 681q0 202 104 373q103 168 284 261q150 76 329 76q191 0 360 -105q170 -105 260 -282q77 -151 77 -322q0 -199 -104 -369q-103 -170 -280 -261q-152 -78 -322 -78q-198 0 -368 104q-171 104 -262 282q-78 152 -78 321zM177 681q0 -251 177 -430q175 -177 421 -177 q247 0 422 178t175 430q0 172 -88 319q-86 143 -237 223q-119 62 -264 66q-253 0 -429 -177q-177 -177 -177 -432zM565 273v819h164q210 0 210 -220q0 -81 -30.5 -138t-81.5 -72l157 -389h-145l-132 330v-330h-142zM707 741q52 3 73 28.5t21 85.5q0 69 -20.5 96t-73.5 26 v-236z" />
<glyph unicode="&#xaf;" horiz-adv-x="683" d="M23 0l413 1209h-365v156h602l-411 -1204h388v-161h-627zM265 1610q0 44 31.5 74.5t76.5 30.5q42 0 73 -31.5t31 -74.5q0 -44 -31 -75t-75 -31t-75 31t-31 76z" />
<glyph unicode="&#xb0;" horiz-adv-x="778" d="M72 1069q0 130 92 218q95 92 229 92q128 0 221 -92q92 -89 92 -217t-92 -218q-93 -92 -225 -92t-225 92q-92 90 -92 217zM215 1070q0 -72 51 -123.5t122 -51.5q72 0 123 51.5t51 123.5t-49.5 122.5t-121.5 52.5q-74 0 -125 -51t-51 -124z" />
<glyph unicode="&#xb1;" horiz-adv-x="778" d="M70 184v151h638v-151h-638zM70 622v151h243v240h154v-240h241v-151h-241v-241h-154v241h-243z" />
<glyph unicode="&#xb2;" d="M427 -176q0 45 21 83.5t77 92.5h100q-90 -81 -90 -149q0 -63 70 -63q45 0 88 17v-105q-49 -18 -97 -18q-58 0 -100 22q-69 38 -69 120z" />
<glyph unicode="&#xb3;" horiz-adv-x="393" d="M0 524v155l112 92v731h169v-638l112 96v-156l-112 -95v-709h-169v615z" />
<glyph unicode="&#xb4;" d="M472 1103l149 270l122 -78l-180 -244z" />
<glyph unicode="&#xb5;" horiz-adv-x="736" d="M96 -375v1290h169v-548q0 -5 1 -32v-32q0 -86 23.5 -121.5t79.5 -35.5q87 0 99 80q4 28 4 142v547h169v-547q0 -122 -5.5 -171t-22.5 -86q-61 -126 -228 -126q-74 0 -140 33l20 -393h-169z" />
<glyph unicode="&#xb6;" horiz-adv-x="778" d="M16 1013q0 170 72.5 261t208.5 91h466v-157h-77v-1410h-154v1410h-127v-1410h-154v894h-28q-70 0 -120 49q-87 84 -87 272z" />
<glyph unicode="&#xb7;" horiz-adv-x="382" d="M82 479q0 45 32 76.5t79 31.5q44 0 75.5 -32t31.5 -77t-32 -77t-77 -32t-77 32t-32 78z" />
<glyph unicode="&#xb8;" d="M437 -350l113 258l120 -59l-155 -239z" />
<glyph unicode="&#xb9;" horiz-adv-x="714" d="M61 468q0 231 50 343q24 56 69.5 87.5t100.5 31.5q57 0 95.5 -27t72.5 -91v103h169v-915q-89 -80 -89 -149q0 -63 70 -63q44 0 87 17v-105q-49 -18 -97 -18q-58 0 -99 22q-69 38 -69 120q0 45 21 83.5t76 92.5h-69v118q-36 -76 -72 -104.5t-96 -28.5q-114 0 -167 116.5 t-53 366.5zM236 462q0 -177 23 -250q23 -74 88 -74q57 0 82 74t25 246q0 171 -24.5 244t-82.5 75q-61 0 -86 -71t-25 -244z" />
<glyph unicode="&#xba;" horiz-adv-x="532" d="M51 686q0 112 68.5 181.5t178.5 69.5q80 0 152 -41v-157q-62 45 -130 45q-46 0 -77 -29.5t-31 -73.5q0 -36 26 -70t93 -85q95 -72 129 -128.5t34 -141.5q0 -110 -61 -185q-71 -86 -202 -86q-42 0 -72.5 9t-76.5 35v163q74 -54 140 -54q54 0 85 30.5t31 83.5 q0 44 -21 74.5t-83 78.5q-107 82 -145 140t-38 141zM109 -350l113 258l120 -59l-155 -239z" />
<glyph unicode="&#xbb;" horiz-adv-x="668" d="M68 830l81 50l234 -401l-216 -406l-80 44l189 362zM289 830l82 50l228 -401l-211 -406l-85 44l195 362z" />
<glyph unicode="&#xbc;" horiz-adv-x="599" d="M105 0v1365h184v-1209h301v-156h-485zM388 1127l87 265l132 -49l-128 -253z" />
<glyph unicode="&#xbd;" d="M352 1095l125 278l114 -67l-158 -255zM584 1095l125 278l114 -67l-158 -255z" />
<glyph unicode="&#xbe;" horiz-adv-x="562" d="M96 0v1502h169v-1502h-169zM347 1252l90 266l125 -48l-134 -252z" />
<glyph unicode="&#xbf;" horiz-adv-x="611" d="M27 0l317 766h-293v149h532l-306 -762h291v-153h-541zM211 1167q0 44 32 75.5t78 31.5q43 0 74.5 -32t31.5 -76q0 -45 -31.5 -76.5t-76.5 -31.5t-76.5 31.5t-31.5 77.5z" />
<glyph unicode="&#xc0;" horiz-adv-x="763" d="M105 0v1365h242q133 0 200 -51q116 -89 116 -304q0 -177 -81 -281q-39 -49 -107 -65l251 -664h-187l-250 668v-668h-184zM239 1563l190 186l97 -106l-221 -155zM289 760q95 1 133 32q62 52 62 185q0 117 -37 180q-32 57 -128 57h-30v-454z" />
<glyph unicode="&#xc1;" horiz-adv-x="738" d="M3 0l297 1365h144l292 -1365h-182l-51 266h-271l-52 -266h-177zM258 408h218l-40 218q-48 262 -67 474q-25 -250 -78 -517zM295 1563l190 186l97 -106l-221 -155z" />
<glyph unicode="&#xc2;" horiz-adv-x="738" d="M3 0l297 1365h144l292 -1365h-182l-51 266h-271l-52 -266h-177zM144 1573l225 198l227 -187l-76 -96l-151 127l-151 -127zM258 408h218l-40 218q-48 262 -67 474q-25 -250 -78 -517z" />
<glyph unicode="&#xc3;" horiz-adv-x="738" d="M3 0l297 1365h144l292 -1365h-182l-51 266h-271l-52 -266h-177zM131 1712h113q10 -55 40 -78.5t90 -23.5q57 0 85.5 23t39.5 79h112q-10 -101 -52 -151q-56 -66 -190 -66q-107 0 -167.5 55t-70.5 162zM258 408h218l-40 218q-48 262 -67 474q-25 -250 -78 -517z" />
<glyph unicode="&#xc4;" horiz-adv-x="738" d="M3 0l297 1365h144l292 -1365h-182l-51 266h-271l-52 -266h-177zM99 1605q0 41 30 70.5t73 29.5q40 0 69.5 -30t29.5 -71q0 -42 -29.5 -71.5t-71.5 -29.5t-71.5 29.5t-29.5 72.5zM258 408h218l-40 218q-48 262 -67 474q-25 -250 -78 -517zM438 1605q0 41 30 70.5t73 29.5 q40 0 69.5 -30t29.5 -71q0 -42 -29.5 -71.5t-71.5 -29.5t-71.5 29.5t-29.5 72.5z" />
<glyph unicode="&#xc5;" horiz-adv-x="599" d="M105 0v1365h184v-1209h301v-156h-485zM130 1563l190 186l97 -106l-221 -155z" />
<glyph unicode="&#xc6;" horiz-adv-x="691" d="M77 660q0 341 82 510q104 213 328 213q78 0 153 -40v-165q-71 34 -118 34q-65 0 -117.5 -39t-80.5 -108q-52 -124 -52 -398q0 -506 259 -506q51 0 109 28v-169q-67 -38 -149 -38q-414 0 -414 678zM367 1563l190 186l97 -106l-221 -155z" />
<glyph unicode="&#xc7;" horiz-adv-x="691" d="M77 660q0 341 82 510q104 213 328 213q78 0 153 -40v-165q-71 34 -118 34q-65 0 -117.5 -39t-80.5 -108q-52 -124 -52 -398q0 -506 259 -506q51 0 109 28v-169q-67 -38 -149 -38q-414 0 -414 678zM287 -342l110 257l127 -60l-149 -242z" />
<glyph unicode="&#xc8;" horiz-adv-x="691" d="M77 660q0 341 82 510q104 213 328 213q78 0 153 -40v-165q-71 34 -118 34q-65 0 -117.5 -39t-80.5 -108q-52 -124 -52 -398q0 -506 259 -506q51 0 109 28v-169q-67 -38 -149 -38q-414 0 -414 678zM216 1675l76 96l151 -127l152 127l73 -85l-225 -198z" />
<glyph unicode="&#xc9;" horiz-adv-x="658" d="M105 0v1365h489v-156h-305v-432h271v-156h-271v-465h305v-156h-489zM255 1563l190 186l97 -106l-221 -155z" />
<glyph unicode="&#xca;" horiz-adv-x="658" d="M105 0v1365h489v-156h-305v-432h271v-156h-271v-465h305v-156q-89 -80 -89 -149q0 -63 70 -63q44 0 87 17v-105q-49 -18 -97 -18q-58 0 -99 22q-70 38 -70 120q0 45 21.5 83.5t76.5 92.5h-389z" />
<glyph unicode="&#xcb;" horiz-adv-x="658" d="M79 1605q0 41 30 70.5t73 29.5q40 0 69.5 -30t29.5 -71q0 -42 -29.5 -71.5t-71.5 -29.5t-71.5 29.5t-29.5 72.5zM105 0v1365h489v-156h-305v-432h271v-156h-271v-465h305v-156h-489zM418 1605q0 41 30 70.5t73 29.5q40 0 69.5 -30t29.5 -71q0 -42 -29.5 -71.5 t-71.5 -29.5t-71.5 29.5t-29.5 72.5z" />
<glyph unicode="&#xcc;" horiz-adv-x="658" d="M105 0v1365h489v-156h-305v-432h271v-156h-271v-465h305v-156h-489zM123 1675l76 96l151 -127l152 127l73 -85l-225 -198z" />
<glyph unicode="&#xcd;" horiz-adv-x="395" d="M105 0v1365h184v-1365h-184zM123 1563l190 186l97 -106l-221 -155z" />
<glyph unicode="&#xce;" horiz-adv-x="394" d="M-28 1573l225 198l227 -187l-76 -96l-151 127l-151 -127zM105 0v1365h184v-1365h-184z" />
<glyph unicode="&#xcf;" horiz-adv-x="842" d="M105 0v1365h226q118 0 187 -27.5t123 -96.5q67 -86 95 -218.5t28 -358.5q0 -216 -31.5 -347.5t-100.5 -207.5q-55 -59 -141 -84t-237 -25h-149zM142 1675l76 96l151 -127l152 127l73 -85l-225 -198zM289 160q101 0 155 33q71 41 99.5 145t28.5 319q0 317 -56 435 t-205 118h-22v-1050z" />
<glyph unicode="&#xd0;" horiz-adv-x="842" d="M3 676v142h102v547h226q119 0 188 -27.5t122 -96.5q67 -86 95.5 -218t28.5 -358q0 -217 -31.5 -348.5t-100.5 -207.5q-55 -59 -141.5 -84t-237.5 -25h-149v676h-102zM289 160q101 0 156 33q71 41 99.5 145t28.5 320q0 316 -56 434t-206 118h-22v-392h178v-142h-178v-516z " />
<glyph unicode="&#xd1;" horiz-adv-x="847" d="M105 0v1365h172l183 -545q86 -256 140 -492q-38 262 -43 528v509h184v-1365h-172l-206 614q-14 42 -38.5 122.5t-31.5 109.5q-4 18 -29 134q-4 16 -16 70q7 -59 16 -206q12 -177 13 -249l9 -595h-181zM349 1563l190 186l97 -106l-221 -155z" />
<glyph unicode="&#xd2;" horiz-adv-x="847" d="M105 0v1365h172l183 -545q86 -256 140 -492q-38 262 -43 528v509h184v-1365h-172l-206 614q-14 42 -38.5 122.5t-31.5 109.5q-4 18 -29 134q-4 16 -16 70q7 -59 16 -206q12 -177 13 -249l9 -595h-181zM198 1675l76 96l151 -127l152 127l73 -85l-225 -198z" />
<glyph unicode="&#xd3;" horiz-adv-x="866" d="M78 715q0 189 16.5 303.5t56.5 197.5q79 164 278 167q127 0 210 -70q81 -68 115 -220.5t34 -443.5q0 -182 -18 -301t-58 -203q-77 -163 -274 -163q-136 0 -221 81q-78 73 -109 235q-30 153 -30 417zM271 676q0 -299 30 -403q35 -122 133 -122q112 0 140 146 q22 118 22 332q0 355 -32 470t-130 117q-93 0 -130 -103q-33 -92 -33 -437zM345 1563l190 186l97 -106l-221 -155z" />
<glyph unicode="&#xd4;" horiz-adv-x="866" d="M78 715q0 189 16.5 303.5t56.5 197.5q79 164 278 167q127 0 210 -70q81 -68 115 -220.5t34 -443.5q0 -182 -18 -301t-58 -203q-77 -163 -274 -163q-136 0 -221 81q-78 73 -109 235q-30 153 -30 417zM208 1573l225 198l227 -187l-76 -96l-151 127l-151 -127zM271 676 q0 -299 30 -403q35 -122 133 -122q112 0 140 146q22 118 22 332q0 355 -32 470t-130 117q-93 0 -130 -103q-33 -92 -33 -437z" />
<glyph unicode="&#xd5;" horiz-adv-x="866" d="M78 715q0 189 16.5 303.5t56.5 197.5q79 164 278 167q127 0 210 -70q81 -68 115 -220.5t34 -443.5q0 -182 -18 -301t-58 -203q-77 -163 -274 -163q-136 0 -221 81q-78 73 -109 235q-30 153 -30 417zM217 1507q2 65 20 108q14 33 44 54t64 21q31 0 113 -37q62 -28 81 -28 q30 0 31 50h106q0 -61 -17 -100q-36 -81 -118 -81q-33 0 -103 35q-54 28 -81 28q-33 0 -36 -50h-104zM271 676q0 -299 30 -403q35 -122 133 -122q112 0 140 146q22 118 22 332q0 355 -32 470t-130 117q-93 0 -130 -103q-33 -92 -33 -437z" />
<glyph unicode="&#xd6;" horiz-adv-x="866" d="M78 715q0 189 16.5 303.5t56.5 197.5q79 164 278 167q127 0 210 -70q81 -68 115 -220.5t34 -443.5q0 -182 -18 -301t-58 -203q-77 -163 -274 -163q-136 0 -221 81q-78 73 -109 235q-30 153 -30 417zM163 1605q0 41 30 70.5t73 29.5q40 0 69.5 -30t29.5 -71 q0 -42 -29.5 -71.5t-71.5 -29.5t-71.5 29.5t-29.5 72.5zM271 676q0 -299 30 -403q35 -122 133 -122q112 0 140 146q22 118 22 332q0 355 -32 470t-130 117q-93 0 -130 -103q-33 -92 -33 -437zM502 1605q0 41 30 70.5t73 29.5q40 0 69.5 -30t29.5 -71q0 -42 -29.5 -71.5 t-71.5 -29.5t-71.5 29.5t-29.5 72.5z" />
<glyph unicode="&#xd7;" horiz-adv-x="778" d="M101 887l107 107l182 -182l181 182l106 -106l-181 -182l182 -182l-107 -106l-182 182l-182 -182l-105 106l181 181z" />
<glyph unicode="&#xd8;" horiz-adv-x="763" d="M105 0v1365h242q133 0 200 -51q116 -89 116 -304q0 -177 -81 -281q-39 -49 -107 -65l251 -664h-187l-250 668v-668h-184zM109 1675l76 96l151 -127l152 127l73 -85l-225 -198zM289 760q95 1 133 32q62 52 62 185q0 117 -37 180q-32 57 -128 57h-30v-454z" />
<glyph unicode="&#xd9;" horiz-adv-x="838" d="M105 401v964h180v-964q0 -113 11 -159q20 -87 124 -87q109 0 126 94q7 38 7 125v991h180v-991q0 -125 -15 -191.5t-54 -110.5q-79 -90 -248 -90q-204 0 -274 141q-37 76 -37 278zM270 1639q0 62 44 105t108 43q60 0 103.5 -44t43.5 -105q0 -62 -43.5 -106t-105.5 -44 q-63 0 -106.5 44t-43.5 107zM363 1638q0 -24 16.5 -40.5t40.5 -16.5q23 0 39.5 16.5t16.5 40.5q0 23 -16 39.5t-40 17.5q-24 0 -40.5 -16.5t-16.5 -40.5z" />
<glyph unicode="&#xda;" horiz-adv-x="838" d="M105 401v964h180v-964q0 -113 11 -159q20 -87 124 -87q109 0 126 94q7 38 7 125v991h180v-991q0 -125 -15 -191.5t-54 -110.5q-79 -90 -248 -90q-204 0 -274 141q-37 76 -37 278zM345 1563l190 186l97 -106l-221 -155z" />
<glyph unicode="&#xdb;" horiz-adv-x="838" d="M105 401v964h180v-964q0 -113 11 -159q20 -87 124 -87q109 0 126 94q7 38 7 125v991h180v-991q0 -125 -15 -191.5t-54 -110.5q-79 -90 -248 -90q-204 0 -274 141q-37 76 -37 278zM220 1551l155 215l114 -87l-191 -191zM493 1551l155 215l114 -87l-191 -191z" />
<glyph unicode="&#xdc;" horiz-adv-x="838" d="M105 401v964h180v-964q0 -113 11 -159q20 -87 124 -87q109 0 126 94q7 38 7 125v991h180v-991q0 -125 -15 -191.5t-54 -110.5q-79 -90 -248 -90q-204 0 -274 141q-37 76 -37 278zM149 1605q0 41 30 70.5t73 29.5q40 0 69.5 -30t29.5 -71q0 -42 -29.5 -71.5t-71.5 -29.5 t-71.5 29.5t-29.5 72.5zM488 1605q0 41 30 70.5t73 29.5q40 0 69.5 -30t29.5 -71q0 -42 -29.5 -71.5t-71.5 -29.5t-71.5 29.5t-29.5 72.5z" />
<glyph unicode="&#xdd;" horiz-adv-x="699" d="M-4 1365h195l90 -298q7 -24 19 -63q51 -161 70 -270q17 114 54 274l11 48l75 309h193l-238 -778v-587h-184v587zM289 1563l190 186l97 -106l-221 -155z" />
<glyph unicode="&#xde;" horiz-adv-x="591" d="M-4 1204v161h599v-161h-206v-1204h-180v1204h-213zM152 -360l87 265l132 -49l-128 -253z" />
<glyph unicode="&#xdf;" horiz-adv-x="747" d="M96 0v1213q0 96 13 148t48 96q65 80 214 80q158 0 223 -84q62 -80 62 -239q0 -121 -30.5 -187t-98.5 -93q100 -30 129.5 -110t29.5 -320q0 -178 -14.5 -272.5t-50.5 -149.5q-55 -84 -209 -84q-17 0 -66 2v156h24q77 0 103.5 66.5t26.5 262.5q0 140 -6.5 203t-24.5 97 q-20 38 -52 53.5t-89 16.5v153h23q72 0 101.5 42.5t29.5 145.5q0 98 -24 135q-27 41 -84 41q-63 0 -88 -47q-21 -40 -21 -149v-1176h-169z" />
<glyph unicode="&#xe0;" horiz-adv-x="483" d="M96 0v915h169v-114q71 129 198 136v-177q-17 2 -30 2q-84 0 -126 -44q-25 -27 -33.5 -60.5t-8.5 -102.5v-555h-169zM176 1103l149 270l122 -78l-180 -244z" />
<glyph unicode="&#xe1;" horiz-adv-x="714" d="M61 468q0 231 50 343q24 56 69.5 87.5t100.5 31.5q57 0 95.5 -27.5t72.5 -90.5v103h169v-915h-169v118q-36 -76 -72 -104.5t-96 -28.5q-114 0 -167 116.5t-53 366.5zM236 462q0 -177 23 -251q23 -73 88 -73q57 0 82 74t25 246q0 171 -24.5 244t-82.5 75q-61 0 -86 -71 t-25 -244zM277 1103l149 270l122 -78l-180 -244z" />
<glyph unicode="&#xe2;" horiz-adv-x="714" d="M61 468q0 231 50 343q24 56 69.5 87.5t100.5 31.5q57 0 95.5 -27.5t72.5 -90.5v103h169v-915h-169v118q-36 -76 -72 -104.5t-96 -28.5q-114 0 -167 116.5t-53 366.5zM132 1121l228 253l224 -253l-85 -70l-141 150l-131 -150zM236 462q0 -177 23 -251q23 -73 88 -73 q57 0 82 74t25 246q0 171 -24.5 244t-82.5 75q-61 0 -86 -71t-25 -244z" />
<glyph unicode="&#xe3;" horiz-adv-x="714" d="M61 468q0 231 50 343q24 56 69.5 87.5t100.5 31.5q57 0 95.5 -27.5t72.5 -90.5v103h169v-915h-169v118q-36 -76 -72 -104.5t-96 -28.5q-114 0 -167 116.5t-53 366.5zM132 1292h113q6 -128 114 -128q52 0 77 29t32 99h113q-6 -123 -59 -179.5t-162 -56.5q-211 0 -228 236z M236 462q0 -177 23 -251q23 -73 88 -73q57 0 82 74t25 246q0 171 -24.5 244t-82.5 75q-61 0 -86 -71t-25 -244z" />
<glyph unicode="&#xe4;" horiz-adv-x="714" d="M61 468q0 231 50 343q24 56 69.5 87.5t100.5 31.5q57 0 95.5 -27.5t72.5 -90.5v103h169v-915h-169v118q-36 -76 -72 -104.5t-96 -28.5q-114 0 -167 116.5t-53 366.5zM99 1162q0 42 30.5 72t74.5 30q41 0 71 -30.5t30 -72.5q0 -43 -30 -73t-73 -30t-73 30t-30 74zM236 462 q0 -177 23 -251q23 -73 88 -73q57 0 82 74t25 246q0 171 -24.5 244t-82.5 75q-61 0 -86 -71t-25 -244zM409 1162q0 42 30.5 72t74.5 30q41 0 71 -30.5t30 -72.5q0 -43 -30 -73t-73 -30t-73 30.5t-30 73.5z" />
<glyph unicode="&#xe5;" horiz-adv-x="360" d="M96 0v1468h169v-1468h-169zM106 1632l190 185l97 -106l-221 -155z" />
<glyph unicode="&#xe6;" horiz-adv-x="518" d="M61 449q0 277 88 396q63 85 187 85q66 0 133 -32v-173q-35 44 -84 44q-72 0 -106 -74t-34 -229q0 -321 138 -321q39 0 86 34v-157q-69 -37 -136 -37q-272 0 -272 464zM240 1103l149 270l122 -78l-180 -244z" />
<glyph unicode="&#xe7;" horiz-adv-x="517" d="M61 449q0 277 88 396q63 85 187 85q66 0 133 -32v-173q-35 44 -84 44q-72 0 -106 -74t-34 -229q0 -321 138 -321q39 0 86 34v-157q-69 -37 -136 -37q-272 0 -272 464zM170 -350l113 258l120 -59l-155 -239z" />
<glyph unicode="&#xe8;" horiz-adv-x="518" d="M62 449q0 277 88 396q63 85 187 85q66 0 133 -32v-173q-35 44 -84 44q-72 0 -106 -74t-34 -229q0 -321 138 -321q39 0 86 34v-157q-69 -37 -136 -37q-272 0 -272 464zM89 1304l95 70l131 -151l141 151l85 -70l-224 -253z" />
<glyph unicode="&#xe9;" horiz-adv-x="668" d="M61 455q0 240 65 357q30 54 87.5 86t124.5 32q199 0 255 -257q20 -90 20 -248h-386q2 -156 29.5 -225t86.5 -69q103 0 106 178h158q-7 -115 -37 -183q-29 -65 -90.5 -103t-138.5 -38q-117 0 -188 81q-92 104 -92 389zM227 547h213q-9 128 -26 174q-23 66 -80 66 q-52 0 -74.5 -50.5t-32.5 -189.5zM254 1103l149 270l122 -78l-180 -244z" />
<glyph unicode="&#xea;" horiz-adv-x="668" d="M61 455q0 240 65 357q30 54 88 86t124 32q199 0 255 -257q20 -90 20 -248h-386q3 -156 30 -225t86 -69q103 0 106 178h158q-7 -116 -33 -175.5t-97 -117.5q-42 -35 -68 -80.5t-26 -85.5q0 -62 70 -62q44 0 88 17v-105q-49 -18 -98 -18q-58 0 -99 22q-69 38 -69 118 q0 92 93 169q-29 -4 -42 -4q-123 0 -195 107q-70 104 -70 361zM227 547h214q-10 128 -27 174q-23 66 -80 66q-52 0 -74.5 -50.5t-32.5 -189.5z" />
<glyph unicode="&#xeb;" horiz-adv-x="668" d="M61 455q0 240 65 357q30 54 87.5 86t124.5 32q199 0 255 -257q20 -90 20 -248h-386q2 -156 29.5 -225t86.5 -69q103 0 106 178h158q-7 -115 -37 -183q-29 -65 -90.5 -103t-138.5 -38q-117 0 -188 81q-92 104 -92 389zM80 1162q0 42 30.5 72t74.5 30q41 0 71 -30.5 t30 -72.5q0 -43 -30 -73t-73 -30t-73 30t-30 74zM227 547h213q-9 128 -26 174q-23 66 -80 66q-52 0 -74.5 -50.5t-32.5 -189.5zM390 1162q0 42 30.5 72t74.5 30q41 0 71 -30.5t30 -72.5q0 -43 -30 -73t-73 -30t-73 30.5t-30 73.5z" />
<glyph unicode="&#xec;" horiz-adv-x="668" d="M61 455q0 240 65 357q30 54 87.5 86t124.5 32q199 0 255 -257q20 -90 20 -248h-386q2 -156 29.5 -225t86.5 -69q103 0 106 178h158q-7 -115 -37 -183q-29 -65 -90.5 -103t-138.5 -38q-117 0 -188 81q-92 104 -92 389zM109 1304l95 70l131 -151l141 151l85 -70l-224 -253z M227 547h213q-9 128 -26 174q-23 66 -80 66q-52 0 -74.5 -50.5t-32.5 -189.5z" />
<glyph unicode="&#xed;" horiz-adv-x="360" d="M96 0v915h169v-915h-169zM115 1103l149 270l122 -78l-180 -244z" />
<glyph unicode="&#xee;" horiz-adv-x="360" d="M-45 1121l228 253l224 -253l-85 -70l-141 150l-131 -150zM95 0v915h169v-915h-169z" />
<glyph unicode="&#xef;" horiz-adv-x="915" d="M61 468q0 231 50 343q52 119 174 119q56 0 92 -26t72 -92v690h169v-1502h-169v118q-36 -76 -72.5 -104.5t-95.5 -28.5q-114 0 -167 116.5t-53 366.5zM236 462q0 -177 23 -251q23 -73 88 -73q57 0 82 74t25 246q0 171 -24.5 244t-82.5 75q-61 0 -86 -71t-25 -244z M700 1252l90 266l125 -48l-134 -252z" />
<glyph unicode="&#xf0;" horiz-adv-x="714" d="M60 468q0 231 50 343q52 119 174 119q56 0 92.5 -26t72.5 -92v335h-185v120h185v235h169v-235h92v-120h-92v-1147h-169v118q-36 -76 -72.5 -104.5t-96.5 -28.5q-114 0 -167 116.5t-53 366.5zM235 462q0 -177 23 -251q23 -73 88 -73q58 0 83 74t25 246q0 171 -24.5 244 t-83.5 75q-61 0 -86 -70.5t-25 -244.5z" />
<glyph unicode="&#xf1;" horiz-adv-x="733" d="M96 0v915h169v-105q40 66 82.5 93t105.5 27q57 0 101 -27.5t64 -74.5q20 -48 20 -177v-651h-169v612q0 79 -12 110q-25 61 -87 61q-58 0 -81.5 -43t-23.5 -148v-592h-169zM281 1103l149 270l122 -78l-180 -244z" />
<glyph unicode="&#xf2;" horiz-adv-x="733" d="M96 0v915h169v-105q40 66 82.5 93t105.5 27q57 0 101 -27.5t64 -74.5q20 -48 20 -177v-651h-169v612q0 79 -12 110q-25 61 -87 61q-58 0 -81.5 -43t-23.5 -148v-592h-169zM134 1304l95 70l131 -151l141 151l85 -70l-224 -253z" />
<glyph unicode="&#xf3;" horiz-adv-x="698" d="M61 458q0 238 68 352q69 117 219 120q149 0 218.5 -115.5t69.5 -364.5q0 -465 -287 -465q-148 0 -218 115t-70 358zM243 460q0 -176 24.5 -246.5t84.5 -70.5t84.5 70t24.5 242q0 180 -24 250.5t-85 71.5q-60 0 -84.5 -70.5t-24.5 -246.5zM269 1103l149 270l122 -78 l-180 -244z" />
<glyph unicode="&#xf4;" horiz-adv-x="698" d="M61 458q0 238 68 352q69 117 219 120q149 0 218.5 -115.5t69.5 -364.5q0 -465 -287 -465q-148 0 -218 115t-70 358zM124 1121l228 253l224 -253l-85 -70l-141 150l-131 -150zM243 460q0 -176 24.5 -246.5t84.5 -70.5t84.5 70t24.5 242q0 180 -24 250.5t-85 71.5 q-60 0 -84.5 -70.5t-24.5 -246.5z" />
<glyph unicode="&#xf5;" horiz-adv-x="698" d="M61 458q0 238 68 352q69 117 219 120q149 0 218.5 -115.5t69.5 -364.5q0 -465 -287 -465q-148 0 -218 115t-70 358zM127 1073q6 73 24 112q14 30 45 48.5t68 18.5q50 0 118 -40q36 -21 62 -21q18 0 25 10.5t12 43.5h104q-9 -100 -39.5 -140.5t-97.5 -40.5q-26 0 -44 6.5 t-83 39.5q-26 13 -49 13q-32 0 -39 -50h-106zM243 460q0 -176 24.5 -246.5t84.5 -70.5t84.5 70t24.5 242q0 180 -24 250.5t-85 71.5q-60 0 -84.5 -70.5t-24.5 -246.5z" />
<glyph unicode="&#xf6;" horiz-adv-x="698" d="M61 458q0 238 68 352q69 117 219 120q149 0 218.5 -115.5t69.5 -364.5q0 -465 -287 -465q-148 0 -218 115t-70 358zM91 1162q0 42 30.5 72t74.5 30q41 0 71 -30.5t30 -72.5q0 -43 -30 -73t-73 -30t-73 30t-30 74zM243 460q0 -176 24.5 -246.5t84.5 -70.5t84.5 70 t24.5 242q0 180 -24 250.5t-85 71.5q-60 0 -84.5 -70.5t-24.5 -246.5zM401 1162q0 42 30.5 72t74.5 30q41 0 71 -30.5t30 -72.5q0 -43 -30 -73t-73 -30t-73 30.5t-30 73.5z" />
<glyph unicode="&#xf7;" horiz-adv-x="778" d="M70 622v151h638v-151h-638zM284 452q0 43 31 73t75 31q44 0 74.5 -30.5t30.5 -74.5t-31 -75t-74 -31q-44 0 -75 31t-31 76zM284 945q0 43 31 73t75 31q44 0 74.5 -30.5t30.5 -74.5t-31 -75t-74 -31q-44 0 -75 31t-31 76z" />
<glyph unicode="&#xf8;" horiz-adv-x="483" d="M36 1304l95 70l131 -151l141 151l85 -70l-224 -253zM95 0v915h169v-114q71 129 198 136v-177q-17 2 -30 2q-84 0 -126 -44q-25 -27 -33.5 -60.5t-8.5 -102.5v-555h-169z" />
<glyph unicode="&#xf9;" horiz-adv-x="736" d="M96 310v605h169v-547q2 -123 10 -155q16 -67 94 -67q87 0 99 80q4 28 4 142v547h169v-547q0 -122 -5.5 -170.5t-23.5 -85.5q-60 -127 -245 -127q-146 0 -208.5 75t-62.5 250zM223 1183q0 61 43.5 103.5t106.5 42.5q59 0 102 -43.5t43 -103.5q0 -61 -43.5 -104t-104.5 -43 t-104 43t-43 105zM309 1185q0 -26 18 -44t44 -18t44 18t18 43t-17.5 42.5t-43.5 18.5q-26 0 -44.5 -17.5t-18.5 -42.5z" />
<glyph unicode="&#xfa;" horiz-adv-x="736" d="M96 310v605h169v-547q2 -123 10 -155q16 -67 94 -67q87 0 99 80q4 28 4 142v547h169v-547q0 -122 -5.5 -170.5t-23.5 -85.5q-60 -127 -245 -127q-146 0 -208.5 75t-62.5 250zM289 1103l149 270l122 -78l-180 -244z" />
<glyph unicode="&#xfb;" horiz-adv-x="736" d="M96 310v605h169v-547q2 -123 10 -155q16 -67 94 -67q87 0 99 80q4 28 4 142v547h169v-547q0 -122 -5.5 -170.5t-23.5 -85.5q-60 -127 -245 -127q-146 0 -208.5 75t-62.5 250zM195 1095l125 278l114 -67l-158 -255zM427 1095l125 278l114 -67l-158 -255z" />
<glyph unicode="&#xfc;" horiz-adv-x="736" d="M96 310v605h169v-547q2 -123 10 -155q16 -67 94 -67q87 0 99 80q4 28 4 142v547h169v-547q0 -122 -5.5 -170.5t-23.5 -85.5q-60 -127 -245 -127q-146 0 -208.5 75t-62.5 250zM111 1162q0 42 30.5 72t74.5 30q41 0 71 -30.5t30 -72.5q0 -43 -30 -73t-73 -30t-73 30t-30 74 zM421 1162q0 42 30.5 72t74.5 30q41 0 71 -30.5t30 -72.5q0 -43 -30 -73t-73 -30t-73 30.5t-30 73.5z" />
<glyph unicode="&#xfd;" horiz-adv-x="668" d="M7 915h191l135 -638l157 638h171l-374 -1290h-177l140 449zM282 1103l149 270l122 -78l-180 -244z" />
<glyph unicode="&#xfe;" horiz-adv-x="402" d="M23 784v131h93v256h169v-256h92v-131h-92v-784h-169v784h-93zM61 -359l90 266l125 -48l-134 -252z" />
<glyph unicode="&#xff;" horiz-adv-x="1025" d="M404 1167q0 44 32 75.5t78 31.5q43 0 74.5 -32t31.5 -76q0 -45 -31.5 -76.5t-76.5 -31.5t-76.5 31.5t-31.5 77.5z" />
<glyph unicode="&#x152;" horiz-adv-x="676" d="M63 1035q0 160 83.5 254t226.5 94q99 0 187 -46v-180q-84 61 -151 61q-69 0 -116 -47q-49 -50 -49 -135q0 -70 33 -122.5t155 -175.5q106 -107 139 -170q55 -104 55 -225q0 -159 -89 -260t-229 -101q-117 0 -202 65v182q99 -71 179 -71q74 0 117.5 50.5t43.5 135.5 q0 74 -32.5 133t-123.5 147q-90 88 -122 125t-57 83q-48 87 -48 203zM278 1563l190 186l97 -106l-221 -155z" />
<glyph unicode="&#x153;" horiz-adv-x="533" d="M51 686q0 112 68.5 181.5t178.5 69.5q80 0 152 -41v-157q-62 45 -130 45q-46 0 -77 -29.5t-31 -73.5q0 -36 26 -70t93 -85q95 -72 129 -128.5t34 -141.5q0 -110 -61 -185q-71 -86 -202 -86q-42 0 -72.5 9t-76.5 35v163q74 -54 140 -54q54 0 85 30.5t31 83.5 q0 44 -21 74.5t-83 78.5q-107 82 -145 140t-38 141zM187 1103l149 270l122 -78l-180 -244z" />
<glyph unicode="&#x178;" horiz-adv-x="611" d="M27 0l317 766h-293v149h532l-306 -762h291v-153h-541zM224 1103l149 270l122 -78l-180 -244z" />
<glyph unicode="&#x2000;" horiz-adv-x="908" />
<glyph unicode="&#x2001;" horiz-adv-x="1817" />
<glyph unicode="&#x2002;" horiz-adv-x="908" />
<glyph unicode="&#x2003;" horiz-adv-x="1817" />
<glyph unicode="&#x2004;" horiz-adv-x="605" />
<glyph unicode="&#x2005;" horiz-adv-x="454" />
<glyph unicode="&#x2006;" horiz-adv-x="302" />
<glyph unicode="&#x2007;" horiz-adv-x="302" />
<glyph unicode="&#x2008;" horiz-adv-x="227" />
<glyph unicode="&#x2009;" horiz-adv-x="363" />
<glyph unicode="&#x200a;" horiz-adv-x="100" />
<glyph unicode="&#x2010;" horiz-adv-x="322" d="M0 400v138h322v-138h-322z" />
<glyph unicode="&#x2011;" horiz-adv-x="322" d="M0 400v138h322v-138h-322z" />
<glyph unicode="&#x2012;" horiz-adv-x="322" d="M0 400v138h322v-138h-322z" />
<glyph unicode="&#x2013;" horiz-adv-x="776" d="M116 401v135h545v-135h-545z" />
<glyph unicode="&#x2014;" horiz-adv-x="913" d="M0 401v135h913v-135h-913z" />
<glyph unicode="&#x2018;" horiz-adv-x="418" d="M82 967l174 480l94 -26l-121 -498z" />
<glyph unicode="&#x2019;" horiz-adv-x="418" d="M82 911l121 498l147 -43l-175 -481z" />
<glyph unicode="&#x201a;" horiz-adv-x="418" d="M68 -307l121 498l147 -44l-175 -480z" />
<glyph unicode="&#x201c;" horiz-adv-x="666" d="M82 967l174 480l94 -26l-121 -498zM330 967l175 480l93 -26l-121 -498z" />
<glyph unicode="&#x201d;" horiz-adv-x="666" d="M82 911l121 498l147 -43l-175 -481zM330 911l122 498l146 -43l-174 -481z" />
<glyph unicode="&#x201e;" horiz-adv-x="666" d="M68 -307l121 498l147 -44l-175 -480zM316 -307l122 498l146 -44l-174 -480z" />
<glyph unicode="&#x2022;" horiz-adv-x="1365" d="M401 694q0 120 84 202q85 82 204 82q113 0 196 -83q84 -83 84 -201t-83 -201t-201 -83q-116 0 -199 82q-85 84 -85 202z" />
<glyph unicode="&#x2026;" horiz-adv-x="1147" d="M82 96q0 45 32 76.5t79 31.5q44 0 75.5 -32t31.5 -77t-32 -77t-77 -32t-77 32t-32 78zM464 96q0 45 32.5 76.5t78.5 31.5q44 0 75.5 -32t31.5 -77t-32 -77t-77 -32t-77 32t-32 78zM847 96q0 45 32 76.5t79 31.5q44 0 75.5 -32t31.5 -77t-32 -77t-77 -32t-77 32t-32 78z " />
<glyph unicode="&#x202f;" horiz-adv-x="363" />
<glyph unicode="&#x2039;" horiz-adv-x="452" d="M68 479l234 401l81 -50l-208 -351l189 -362l-80 -44z" />
<glyph unicode="&#x203a;" horiz-adv-x="452" d="M68 830l81 50l234 -401l-216 -406l-80 44l189 362z" />
<glyph unicode="&#x205f;" horiz-adv-x="454" />
<glyph unicode="&#x2122;" horiz-adv-x="1017" d="M-10 1261v104h389v-104h-129v-674h-127v674h-133zM398 587l72 778h110l77 -317q18 -77 39 -200q20 124 38 205l69 312h112l80 -778h-125l-30 457l-98 -457h-88l-69 294q-13 53 -35 174l-29 -468h-123z" />
<glyph unicode="&#xe000;" horiz-adv-x="915" d="M0 0v915h915v-915h-915z" />
</font>
</defs>
</svg>
